<?xml version="1.0" encoding="utf-8"?>
<!-- Generator: Adobe Illustrator 27.1.1, SVG Export Plug-In . SVG Version: 6.00 Build 0)  -->
<svg version="1.1" id="Layer_1" xmlns="http://www.w3.org/2000/svg" xmlns:xlink="http://www.w3.org/1999/xlink" x="0px" y="0px"
	 viewBox="0 0 2500 2500" style="enable-background:new 0 0 2500 2500;" xml:space="preserve">
<style type="text/css">
	.st0{display:none;}
	.st1{display:inline;}
	.st2{fill:#28C76F;}
	.st3{fill:#42A572;}
	.st4{fill:#231F20;}
	.st5{fill:#383536;}
</style>
<g id="XMLID_49_" class="st0">
	<path id="XMLID_62_" class="st1" d="M840.51,1772.68c-0.12-0.24-0.27-0.42-0.45-0.54c-0.18-0.1-0.38-0.16-0.6-0.16h-37.14
		c-0.23,0-0.42,0.05-0.6,0.16c-0.18,0.12-0.32,0.3-0.43,0.54c-0.11,0.25-0.2,0.58-0.27,0.97c-0.07,0.4-0.1,0.85-0.1,1.38
		c0,0.52,0.03,0.97,0.1,1.36c0.07,0.39,0.16,0.7,0.27,0.92c0.11,0.24,0.25,0.41,0.43,0.52c0.18,0.12,0.37,0.17,0.6,0.17h15.02v46.31
		c0,0.23,0.06,0.41,0.17,0.58c0.11,0.16,0.3,0.29,0.58,0.39c0.28,0.11,0.65,0.18,1.11,0.25c0.47,0.07,1.03,0.11,1.69,0.11
		c0.69,0,1.26-0.04,1.71-0.11c0.46-0.07,0.82-0.14,1.09-0.25c0.28-0.1,0.47-0.24,0.58-0.39c0.11-0.16,0.16-0.35,0.16-0.58v-46.31
		h15.03c0.22,0,0.42-0.05,0.6-0.17c0.18-0.11,0.33-0.28,0.45-0.52c0.13-0.23,0.21-0.54,0.27-0.92c0.05-0.39,0.08-0.84,0.08-1.36
		c0-0.53-0.03-0.97-0.08-1.38C840.72,1773.26,840.64,1772.93,840.51,1772.68z"/>
	<path id="XMLID_59_" class="st1" d="M908.88,1773.27c-0.11-0.31-0.26-0.56-0.45-0.77c-0.19-0.2-0.47-0.37-0.83-0.47
		c-0.36-0.11-0.83-0.18-1.4-0.23c-0.58-0.04-1.31-0.06-2.19-0.06c-0.83,0-1.51,0.03-2.04,0.06c-0.54,0.05-0.98,0.11-1.32,0.23
		c-0.35,0.11-0.61,0.27-0.78,0.45c-0.18,0.19-0.32,0.45-0.43,0.75l-17.91,49.61c-0.22,0.61-0.33,1.1-0.35,1.46
		c-0.01,0.39,0.08,0.67,0.29,0.85c0.21,0.2,0.56,0.32,1.07,0.39c0.51,0.07,1.16,0.11,1.96,0.11c0.77,0,1.4-0.04,1.87-0.09
		c0.48-0.05,0.86-0.16,1.11-0.27c0.26-0.12,0.46-0.27,0.6-0.46c0.14-0.17,0.25-0.39,0.33-0.63l4.38-12.84h22.2l4.58,13
		c0.1,0.26,0.23,0.46,0.35,0.62c0.12,0.16,0.31,0.29,0.58,0.39c0.26,0.09,0.65,0.16,1.15,0.21c0.51,0.02,1.19,0.06,2.04,0.06
		c0.86,0,1.54-0.04,2.05-0.09c0.5-0.05,0.87-0.18,1.09-0.38c0.22-0.2,0.33-0.48,0.31-0.84c-0.02-0.38-0.13-0.86-0.35-1.46
		L908.88,1773.27z M894.56,1805.7l9.21-26.62h0.04l9.33,26.62H894.56z"/>
	<path id="XMLID_58_" class="st1" d="M1013.1,1775.98c-0.36-0.35-1.02-0.81-1.97-1.37c-0.95-0.57-2.11-1.1-3.5-1.58
		c-1.39-0.47-2.98-0.9-4.77-1.26c-1.78-0.36-3.7-0.53-5.74-0.53c-3.96,0-7.57,0.66-10.83,2c-3.26,1.33-6.04,3.21-8.38,5.63
		c-2.32,2.43-4.13,5.36-5.41,8.8c-1.28,3.43-1.92,7.28-1.92,11.52c0,4.05,0.59,7.76,1.78,11.06c1.18,3.3,2.89,6.13,5.13,8.5
		c2.24,2.36,4.99,4.19,8.24,5.47c3.25,1.28,6.93,1.92,11.06,1.92c1.35,0,2.71-0.09,4.09-0.25c1.38-0.16,2.74-0.41,4.09-0.75
		c1.35-0.32,2.66-0.73,3.93-1.19c1.26-0.47,2.29-0.9,3.09-1.31c0.8-0.39,1.32-0.86,1.57-1.38c0.25-0.52,0.37-1.14,0.37-1.85v-20.34
		c0-0.5-0.06-0.95-0.2-1.32c-0.13-0.39-0.32-0.69-0.58-0.92c-0.25-0.22-0.52-0.38-0.82-0.5c-0.31-0.1-0.61-0.16-0.9-0.16h-16.96
		c-0.25,0-0.45,0.06-0.61,0.16c-0.17,0.12-0.32,0.29-0.44,0.53c-0.12,0.23-0.21,0.53-0.26,0.9c-0.06,0.36-0.09,0.82-0.09,1.33
		c0,1,0.11,1.72,0.35,2.19c0.24,0.47,0.59,0.7,1.06,0.7h12.38v15.56c-1.45,0.79-3.04,1.4-4.73,1.79c-1.69,0.4-3.36,0.6-5.01,0.6
		c-2.78,0-5.33-0.46-7.66-1.39c-2.32-0.95-4.32-2.33-6-4.14c-1.68-1.82-2.99-4.05-3.93-6.68c-0.96-2.64-1.43-5.67-1.43-9.07
		c0-3.06,0.44-5.9,1.3-8.5c0.87-2.62,2.11-4.88,3.73-6.78c1.62-1.9,3.61-3.39,5.95-4.46c2.34-1.07,4.98-1.61,7.92-1.61
		c2.48,0,4.62,0.26,6.42,0.79c1.8,0.53,3.35,1.1,4.65,1.74c1.29,0.63,2.32,1.2,3.09,1.73c0.77,0.53,1.32,0.79,1.65,0.79
		c0.19,0,0.37-0.06,0.53-0.17c0.17-0.11,0.31-0.3,0.41-0.55c0.11-0.26,0.2-0.6,0.25-0.99c0.05-0.4,0.08-0.86,0.08-1.39
		c0-0.88-0.06-1.55-0.21-2.02C1013.7,1776.75,1013.45,1776.34,1013.1,1775.98z"/>
	<path id="XMLID_57_" class="st1" d="M1092.81,1819.96c-0.13-0.24-0.28-0.42-0.46-0.53c-0.18-0.12-0.39-0.18-0.64-0.18h-19.15
		v-46.19c0-0.22-0.06-0.4-0.17-0.58c-0.11-0.16-0.3-0.29-0.58-0.39c-0.27-0.1-0.64-0.19-1.1-0.25c-0.45-0.07-1.02-0.11-1.71-0.11
		c-0.66,0-1.23,0.04-1.69,0.11c-0.47,0.06-0.84,0.15-1.11,0.25c-0.27,0.1-0.47,0.22-0.58,0.39c-0.11,0.18-0.17,0.36-0.17,0.58v49.44
		c0,1.09,0.28,1.84,0.85,2.26c0.56,0.42,1.16,0.64,1.79,0.64h23.61c0.25,0,0.46-0.06,0.64-0.19c0.18-0.11,0.33-0.31,0.46-0.58
		c0.11-0.25,0.21-0.57,0.26-0.94c0.06-0.38,0.09-0.83,0.09-1.38c0-0.56-0.03-1.03-0.09-1.41
		C1093.02,1820.5,1092.93,1820.2,1092.81,1819.96z"/>
	<path id="XMLID_56_" class="st1" d="M1145.57,1772.08c-0.27-0.1-0.64-0.19-1.09-0.25c-0.46-0.07-1.03-0.11-1.72-0.11
		c-0.63,0-1.17,0.04-1.62,0.11c-0.46,0.06-0.82,0.15-1.11,0.25c-0.29,0.1-0.5,0.22-0.62,0.39c-0.12,0.18-0.18,0.36-0.18,0.58v51.26
		c0,0.23,0.05,0.41,0.17,0.58c0.11,0.16,0.3,0.29,0.57,0.39c0.28,0.11,0.65,0.18,1.11,0.25c0.47,0.07,1.03,0.11,1.69,0.11
		c0.69,0,1.26-0.04,1.72-0.11c0.45-0.07,0.82-0.14,1.09-0.25c0.27-0.1,0.46-0.24,0.58-0.39c0.11-0.16,0.17-0.35,0.17-0.58v-51.26
		c0-0.22-0.06-0.4-0.17-0.58C1146.04,1772.31,1145.85,1772.18,1145.57,1772.08z"/>
	<path id="XMLID_55_" class="st1" d="M1238.35,1772.21c-0.26-0.12-0.62-0.22-1.09-0.26c-0.46-0.06-1.01-0.1-1.65-0.1
		c-0.73,0-1.31,0.03-1.77,0.1c-0.45,0.04-0.81,0.14-1.08,0.26c-0.28,0.12-0.47,0.26-0.59,0.44c-0.11,0.16-0.18,0.34-0.18,0.53v28.97
		c0,2.18,0.01,4.45,0.02,6.8c0.02,2.35,0.05,4.62,0.11,6.78h-0.05c-0.63-1.3-1.28-2.58-1.93-3.86c-0.66-1.28-1.31-2.57-1.97-3.9
		c-0.67-1.31-1.36-2.67-2.08-4.02c-0.72-1.37-1.46-2.76-2.24-4.2l-12.52-23.44c-0.45-0.85-0.89-1.55-1.3-2.12
		c-0.41-0.56-0.84-1.01-1.28-1.32c-0.44-0.3-0.94-0.53-1.49-0.67c-0.55-0.14-1.24-0.21-2.07-0.21h-3.49c-0.74,0-1.42,0.24-2.04,0.7
		c-0.63,0.46-0.94,1.25-0.94,2.35v49.28c0,0.19,0.06,0.38,0.17,0.56c0.12,0.17,0.31,0.31,0.57,0.4c0.26,0.11,0.62,0.18,1.07,0.25
		c0.45,0.07,1.02,0.11,1.72,0.11c0.7,0,1.27-0.04,1.72-0.11c0.45-0.07,0.81-0.14,1.09-0.25c0.27-0.1,0.46-0.24,0.59-0.4
		c0.11-0.18,0.18-0.37,0.18-0.56v-32.23c0-2.03-0.02-4.09-0.04-6.16c-0.03-2.06-0.07-4.08-0.13-6.06h0.08
		c0.75,1.62,1.56,3.29,2.41,5.02c0.87,1.72,1.73,3.36,2.58,4.93l16.29,30.38c0.56,1.07,1.09,1.94,1.59,2.64
		c0.49,0.68,1,1.23,1.49,1.62c0.5,0.4,1.03,0.68,1.58,0.83c0.56,0.15,1.2,0.23,1.95,0.23h2.34c0.37,0,0.74-0.06,1.11-0.18
		c0.37-0.1,0.7-0.29,1-0.53c0.31-0.25,0.55-0.56,0.73-0.94c0.19-0.39,0.28-0.86,0.28-1.41v-49.29c0-0.19-0.06-0.37-0.18-0.53
		C1238.8,1772.47,1238.61,1772.33,1238.35,1772.21z"/>
	<path id="XMLID_54_" class="st1" d="M1320.86,1820.16c-0.15-0.23-0.31-0.39-0.48-0.5c-0.18-0.12-0.37-0.17-0.59-0.17h-21.18v-19.11
		h17.93c0.21,0,0.41-0.05,0.59-0.15c0.18-0.1,0.34-0.26,0.46-0.48c0.12-0.21,0.21-0.5,0.27-0.87c0.06-0.35,0.09-0.78,0.09-1.27
		c0-0.53-0.03-0.97-0.09-1.36c-0.06-0.39-0.15-0.7-0.27-0.91c-0.12-0.22-0.27-0.39-0.46-0.52c-0.18-0.11-0.38-0.18-0.59-0.18h-17.93
		v-16.75h20.9c0.22,0,0.42-0.06,0.59-0.17c0.18-0.11,0.33-0.28,0.44-0.52c0.11-0.23,0.19-0.54,0.26-0.91c0.07-0.37,0.1-0.8,0.1-1.29
		c0-0.55-0.03-1.01-0.1-1.38c-0.07-0.37-0.15-0.68-0.26-0.93c-0.11-0.24-0.26-0.42-0.44-0.54c-0.17-0.1-0.38-0.16-0.59-0.16h-25.34
		c-0.64,0-1.24,0.22-1.81,0.64c-0.56,0.43-0.84,1.17-0.84,2.25v47.62c0,1.09,0.28,1.84,0.84,2.26c0.57,0.42,1.17,0.64,1.81,0.64
		h25.63c0.22,0,0.41-0.06,0.59-0.16c0.18-0.11,0.34-0.3,0.48-0.53c0.14-0.26,0.24-0.57,0.29-0.93c0.05-0.37,0.07-0.81,0.07-1.3
		c0-0.55-0.02-1.02-0.07-1.38C1321.09,1820.7,1321,1820.4,1320.86,1820.16z"/>
	<path id="XMLID_53_" class="st1" d="M1452.59,1772.08c-0.27-0.1-0.63-0.19-1.09-0.25c-0.45-0.07-1.01-0.11-1.67-0.11
		c-0.72,0-1.3,0.04-1.73,0.11c-0.45,0.06-0.8,0.15-1.07,0.25c-0.29,0.1-0.47,0.22-0.58,0.39c-0.11,0.18-0.17,0.36-0.17,0.58v21.38
		h-24.3v-21.38c0-0.22-0.07-0.4-0.18-0.58c-0.11-0.16-0.3-0.29-0.58-0.39c-0.27-0.1-0.64-0.19-1.09-0.25
		c-0.45-0.07-1.02-0.11-1.71-0.11c-0.66,0-1.23,0.04-1.69,0.11c-0.46,0.06-0.84,0.15-1.1,0.25c-0.29,0.1-0.48,0.22-0.58,0.39
		c-0.12,0.18-0.17,0.36-0.17,0.58v51.26c0,0.23,0.05,0.41,0.17,0.58c0.1,0.16,0.29,0.29,0.58,0.39c0.26,0.11,0.64,0.18,1.1,0.25
		c0.46,0.07,1.03,0.11,1.69,0.11c0.69,0,1.26-0.04,1.71-0.11c0.45-0.07,0.82-0.14,1.09-0.25c0.28-0.1,0.47-0.24,0.58-0.39
		c0.11-0.16,0.18-0.35,0.18-0.58v-23.7h24.3v23.7c0,0.23,0.05,0.41,0.17,0.58c0.11,0.16,0.29,0.29,0.58,0.39
		c0.27,0.11,0.62,0.18,1.07,0.25c0.43,0.07,1.01,0.11,1.73,0.11c0.66,0,1.22-0.04,1.67-0.11c0.46-0.07,0.82-0.14,1.09-0.25
		c0.29-0.1,0.48-0.24,0.59-0.39c0.12-0.16,0.16-0.35,0.16-0.58v-51.26c0-0.22-0.04-0.4-0.16-0.58
		C1453.07,1772.31,1452.88,1772.18,1452.59,1772.08z"/>
	<path id="XMLID_52_" class="st1" d="M1535.1,1820.16c-0.15-0.23-0.31-0.39-0.48-0.5c-0.18-0.12-0.39-0.17-0.61-0.17h-21.16v-19.11
		h17.92c0.22,0,0.41-0.05,0.59-0.15c0.18-0.1,0.32-0.26,0.45-0.48c0.12-0.21,0.21-0.5,0.26-0.87c0.06-0.35,0.09-0.78,0.09-1.27
		c0-0.53-0.03-0.97-0.09-1.36c-0.05-0.39-0.14-0.7-0.26-0.91c-0.13-0.22-0.27-0.39-0.45-0.52c-0.18-0.11-0.38-0.18-0.59-0.18h-17.92
		v-16.75h20.88c0.22,0,0.41-0.06,0.61-0.17c0.17-0.11,0.32-0.28,0.43-0.52c0.12-0.23,0.2-0.54,0.27-0.91c0.07-0.37,0.1-0.8,0.1-1.29
		c0-0.55-0.03-1.01-0.1-1.38c-0.08-0.37-0.15-0.68-0.27-0.93c-0.11-0.24-0.26-0.42-0.43-0.54c-0.19-0.1-0.38-0.16-0.61-0.16h-25.35
		c-0.62,0-1.22,0.22-1.78,0.64c-0.57,0.43-0.85,1.17-0.85,2.25v47.62c0,1.09,0.29,1.84,0.85,2.26c0.56,0.42,1.16,0.64,1.78,0.64
		h25.64c0.21,0,0.42-0.06,0.61-0.16c0.17-0.11,0.33-0.3,0.48-0.53c0.13-0.26,0.24-0.57,0.27-0.93c0.06-0.37,0.1-0.81,0.1-1.3
		c0-0.55-0.03-1.02-0.1-1.38C1535.34,1820.7,1535.24,1820.4,1535.1,1820.16z"/>
	<path id="XMLID_50_" class="st1" d="M1619.96,1821.3l-4.78-11.76c-0.55-1.36-1.1-2.57-1.66-3.63c-0.55-1.08-1.13-2.03-1.76-2.84
		c-0.61-0.83-1.28-1.53-2-2.13c-0.72-0.6-1.5-1.08-2.39-1.46c1.55-0.55,2.99-1.23,4.25-2.02c1.27-0.8,2.36-1.74,3.25-2.82
		c0.9-1.1,1.61-2.35,2.09-3.77c0.48-1.41,0.72-3.02,0.72-4.81c0-1.84-0.27-3.53-0.8-5.05c-0.53-1.54-1.34-2.88-2.41-4.07
		c-1.07-1.18-2.4-2.17-3.97-2.93c-1.59-0.77-3.43-1.34-5.47-1.69c-0.73-0.08-1.53-0.15-2.43-0.22c-0.89-0.07-2.02-0.1-3.36-0.1
		h-11.35c-0.63,0-1.23,0.22-1.8,0.64c-0.57,0.43-0.85,1.17-0.85,2.25v49.45c0,0.23,0.06,0.41,0.15,0.58
		c0.12,0.16,0.32,0.29,0.59,0.39c0.27,0.11,0.64,0.18,1.09,0.25c0.46,0.07,1.03,0.11,1.72,0.11c0.69,0,1.25-0.04,1.71-0.11
		c0.45-0.07,0.8-0.14,1.06-0.25c0.27-0.1,0.45-0.24,0.57-0.39c0.13-0.16,0.2-0.35,0.2-0.58v-22.74h4.74c1.62,0,3.01,0.25,4.17,0.72
		c1.16,0.49,2.17,1.16,3.02,2.02c0.85,0.86,1.6,1.89,2.21,3.11c0.62,1.18,1.21,2.5,1.8,3.93l4.91,12.59
		c0.11,0.33,0.23,0.6,0.39,0.82c0.15,0.22,0.36,0.4,0.63,0.52c0.28,0.12,0.64,0.22,1.09,0.27c0.47,0.04,1.04,0.09,1.76,0.09
		c0.83,0,1.49-0.04,1.99-0.09c0.5-0.05,0.88-0.16,1.15-0.25c0.27-0.12,0.46-0.25,0.54-0.41c0.09-0.16,0.13-0.35,0.13-0.58
		c0-0.22-0.05-0.53-0.17-0.93C1620.59,1822.98,1620.33,1822.29,1619.96,1821.3z M1604.13,1795.14c-1.37,0.46-2.98,0.69-4.86,0.69
		h-6.93v-18h5.98c1.41,0,2.53,0.05,3.41,0.12c0.86,0.08,1.64,0.22,2.33,0.42c2.2,0.63,3.77,1.66,4.71,3.11
		c0.92,1.44,1.39,3.22,1.39,5.3c0,1.3-0.22,2.49-0.64,3.59c-0.42,1.11-1.1,2.06-2,2.87
		C1606.62,1794.07,1605.48,1794.7,1604.13,1795.14z"/>
	<path id="XMLID_64_" class="st1" d="M1698.97,1821.08c-0.03-0.38-0.13-0.68-0.26-0.92c-0.15-0.23-0.31-0.39-0.48-0.5
		c-0.19-0.12-0.39-0.17-0.61-0.17h-21.18v-19.11h17.92c0.23,0,0.41-0.05,0.6-0.15c0.17-0.1,0.33-0.26,0.46-0.48
		c0.11-0.21,0.2-0.5,0.27-0.87c0.05-0.35,0.08-0.78,0.08-1.27c0-0.53-0.03-0.97-0.08-1.36c-0.06-0.39-0.16-0.7-0.27-0.91
		c-0.13-0.22-0.29-0.39-0.46-0.52c-0.18-0.11-0.37-0.18-0.6-0.18h-17.92v-16.75h20.89c0.22,0,0.41-0.06,0.58-0.17
		c0.19-0.11,0.34-0.28,0.45-0.52c0.11-0.23,0.2-0.54,0.27-0.91c0.08-0.37,0.1-0.8,0.1-1.29c0-0.55-0.02-1.01-0.1-1.38
		c-0.07-0.37-0.16-0.68-0.27-0.93c-0.11-0.24-0.25-0.42-0.45-0.54c-0.17-0.1-0.36-0.16-0.58-0.16H1672c-0.63,0-1.24,0.22-1.8,0.64
		c-0.56,0.43-0.84,1.17-0.84,2.25v47.62c0,1.09,0.28,1.84,0.84,2.26c0.56,0.42,1.17,0.64,1.8,0.64h25.63c0.22,0,0.41-0.06,0.61-0.16
		c0.17-0.11,0.32-0.3,0.48-0.53c0.13-0.26,0.23-0.57,0.26-0.93c0.08-0.37,0.1-0.81,0.1-1.3
		C1699.07,1821.91,1699.05,1821.44,1698.97,1821.08z"/>
</g>
<g id="XMLID_2_">
	<g id="XMLID_4_">
		<g id="e">
			<path id="XMLID_42_" class="st2" d="M956.3,1246.05c17.58-189.87,190.34-264.88,354.74-249.65
				c134.96,12.5,241.83,101.12,233.25,193.7c-15.62,168.69-404.32,63.46-411.87,145.06c-3.41,36.87,87.36,72.18,148.7,77.86
				c201.21,18.63,210.29-79.44,227.46-77.85c18.4,1.7,18.31,42.84,17.73,49.12c-9.23,99.64-134.76,145.78-281.99,132.15
				C1024.71,1496.11,944.67,1371.58,956.3,1246.05z M1129.12,1183.71c-0.8,8.63,4.54,17.83,20.48,19.3
				c14.72,1.36,240.92-9.34,244.62-49.36c3.56-38.44-50.91-64.86-97.53-69.17C1197.32,1075.29,1133.34,1138.21,1129.12,1183.71z"/>
		</g>
		<g id="XMLID_5_">
			<path id="XMLID_6_" class="st3" d="M1191.64,1104.63c-54.95,17.69-88.36,58.99-91.36,91.44c-0.8,8.63,4.54,17.83,20.48,19.3
				c13.05,1.21,192.2-7.07,235.36-36.82c-65.99,19.73-195.49,25.48-206.51,24.45c-15.95-1.48-21.28-10.68-20.48-19.3
				C1131.56,1157.41,1153.97,1125.28,1191.64,1104.63z"/>
			<path id="XMLID_7_" class="st3" d="M1141.52,1318.65c-22.35,5.24-36.56,13.92-37.94,28.87c-3.41,36.87,87.36,72.18,148.7,77.86
				c84.62,7.84,135.25-4.97,166.8-22.32c-31.43,10.26-75.41,15.75-137.96,9.96c-61.34-5.68-152.12-40.99-148.7-77.86
				C1133.04,1328.49,1136.22,1323.07,1141.52,1318.65z"/>
			<path id="XMLID_8_" class="st3" d="M1508.59,1335.18c-5.12-0.47-9.53,7.92-18.52,19.43c8,12.44,7.84,37.28,7.4,42.05
				c-4.23,45.69-32.93,80.12-76.95,102.71c60.11-21.34,100.7-60.04,105.8-115.07C1526.89,1378.02,1526.99,1336.88,1508.59,1335.18z"
				/>
			<path id="XMLID_11_" class="st3" d="M1311.04,996.4c-72.05-6.67-145.69,3.99-207.19,34.05c55.01-20.53,117.25-27.34,178.34-21.68
				c134.96,12.5,241.83,101.12,233.25,193.7c-3.22,34.82-22.35,57.96-50.74,73.49c43.86-14.67,75.36-40.25,79.58-85.85
				C1552.87,1097.52,1446,1008.9,1311.04,996.4z"/>
		</g>
	</g>
	<g id="XMLID_102_">
		<path id="XMLID_40_" class="st2" d="M945.43,944.06c0,7.2-5.87,13.02-13.01,13.02c-7.15,0-13.03-5.82-13.03-13.02
			c0-7.15,5.87-12.97,13.03-12.97C939.56,931.09,945.43,936.91,945.43,944.06z"/>
		<polygon id="XMLID_39_" class="st2" points="947.54,1102.53 917.23,1102.53 932.42,970.67 		"/>
		<g id="XMLID_103_">
			<path id="XMLID_38_" class="st4" d="M1654.04,901.15l-143.91,46.36c-6.59-20.22-32.52-34.58-81.1-45.12
				c-43.68-9.47-101.41-14.66-162.59-14.66c-61.18,0-118.91,5.19-162.59,14.66c-48.98,10.65-74.97,25.16-81.24,45.64l-143.7-45.54
				l386.56-124.46L1654.04,901.15z"/>
			<path id="XMLID_37_" class="st4" d="M1487.23,947.87v120.14c-23.47-25.06-124.21-39.72-220.79-39.72
				c-96.58,0-197.32,14.66-220.78,39.72V947.87c0-22.13,88.7-45.84,220.78-45.84S1487.23,925.74,1487.23,947.87z"/>
			<path id="XMLID_36_" class="st5" d="M1263.57,778.63L878.91,902.49l143.7,45.54c6.28-20.48,32.26-34.99,81.24-45.64
				c43-9.32,99.6-14.49,159.71-14.65V778.63z"/>
			<path id="XMLID_35_" class="st5" d="M1263.57,902.04c-130.47,0.34-217.9,23.87-217.9,45.83v120.14
				c23.23-24.81,122.21-39.41,217.9-39.71V902.04z"/>
		</g>
	</g>
</g>
</svg>
